<svg version="1.1" id="Layer_1" xmlns="http://www.w3.org/2000/svg" xmlns:xlink="http://www.w3.org/1999/xlink" x="0px" y="0px"
	 width="100%" viewBox="0 0 64 64" enable-background="new 0 0 64 64" xml:space="preserve">
<path fill="#DFDFE0" opacity="1.000000" stroke="none" 
	d="
M35.000000,65.000000 
	C33.933483,65.000000 32.866962,65.000000 31.740911,64.737137 
	C31.097330,63.944321 30.586912,63.284813 29.917801,62.904530 
	C23.512680,59.264225 17.175108,55.486240 10.618298,52.139286 
	C7.125774,50.356506 5.680277,48.207798 5.944169,44.169003 
	C6.345299,38.029800 6.628017,31.777477 5.908150,25.697870 
	C5.063784,18.566814 7.457102,14.518395 14.155064,11.911813 
	C18.977520,10.035101 23.320824,6.877093 27.758499,4.099896 
	C28.760061,3.473096 29.265944,2.054247 30.000000,1.000000 
	C31.388889,1.000000 32.777779,1.000000 34.232594,1.249692 
	C35.373375,2.448792 36.326611,3.608512 37.543541,4.312235 
	C43.754642,7.903974 50.152824,11.189388 56.213200,15.013582 
	C57.922913,16.092438 59.672459,18.584845 59.759602,20.503593 
	C60.143509,28.956577 60.037434,37.439739 59.817787,45.904415 
	C59.781151,47.316212 58.644642,49.241089 57.435047,49.990189 
	C51.066505,53.934204 44.464878,57.500359 38.060383,61.389084 
	C36.781071,62.165863 36.007027,63.774780 35.000000,65.000000 
M46.999905,15.068069 
	C44.359684,13.716753 41.719467,12.365436 38.899067,10.308361 
	C34.391941,6.927785 30.045622,6.525810 25.219700,10.933721 
	C22.774778,12.310528 20.329857,13.687334 17.207472,15.287529 
	C15.004238,17.379562 11.618179,19.127110 10.884265,21.647068 
	C9.868297,25.135487 10.847718,29.205044 10.693618,33.700047 
	C10.615284,35.747196 10.536950,37.794346 10.566393,40.728428 
	C11.370890,43.183739 11.424848,46.711044 13.118286,47.896671 
	C18.557859,51.705074 24.565771,54.718300 30.449053,57.861164 
	C31.514736,58.430454 33.310616,58.702717 34.285900,58.190861 
	C39.170227,55.627438 43.660404,52.174068 48.733768,50.145580 
	C54.827515,47.709103 55.995659,43.566345 55.229931,37.220131 
	C55.161350,36.504761 55.092766,35.789394 55.082523,34.131954 
	C55.081730,31.136339 54.690281,28.077047 55.165901,25.159086 
	C56.013664,19.958023 53.620358,17.582407 48.720089,16.197742 
	C48.226276,16.038021 47.732468,15.878300 46.999905,15.068069 
z"/>
<path fill="#8DB1BF" opacity="1.000000" stroke="none" 
	d="
M52.676468,30.934525 
	C53.226780,32.248009 53.777088,33.561493 54.675789,34.974503 
	C55.092766,35.789394 55.161350,36.504761 55.129776,37.568565 
	C53.878216,39.200943 52.726814,40.484890 51.001999,41.574692 
	C50.354244,39.924095 50.279907,38.467648 50.492088,36.946407 
	C51.192017,36.261494 51.605434,35.641376 51.986767,34.688881 
	C51.595264,33.543968 51.235844,32.731430 51.021172,31.682400 
	C51.669434,31.275448 52.172951,31.104986 52.676468,30.934525 
z"/>
<path fill="#B3B7BB" opacity="1.000000" stroke="none" 
	d="
M37.917969,11.279325 
	C38.103558,11.200270 38.289143,11.121214 38.776989,11.028139 
	C41.719467,12.365436 44.359684,13.716753 46.965782,15.566701 
	C46.931656,16.065332 46.621822,16.402172 46.260937,16.299425 
	C42.109024,16.392372 39.884724,14.044876 37.917969,11.279325 
z"/>
<path fill="#C2C2C5" opacity="1.000000" stroke="none" 
	d="
M18.971350,16.004572 
	C18.681101,15.846612 18.390852,15.688652 17.992769,15.297417 
	C20.329857,13.687334 22.774778,12.310528 25.591307,10.970230 
	C25.962914,11.006741 26.015253,11.036750 26.003376,11.422272 
	C24.679768,14.926834 22.497173,16.589146 18.971350,16.004572 
z"/>
<path fill="#829FAC" opacity="1.000000" stroke="none" 
	d="
M10.833154,33.362900 
	C11.141893,33.020714 11.311098,33.015678 11.907589,32.894390 
	C12.334875,32.778137 12.727547,32.872807 12.547386,33.127209 
	C12.298468,33.577728 12.229710,33.773849 12.093819,34.392147 
	C12.019038,36.518314 12.011389,38.222301 12.003739,39.926292 
	C11.744961,39.935440 11.486183,39.944588 10.843010,39.897617 
	C10.536950,37.794346 10.615284,35.747196 10.833154,33.362900 
z"/>
<path fill="#B3B7BB" opacity="1.000000" stroke="none" 
	d="
M48.822487,16.442329 
	C48.906624,16.927645 48.888359,17.168375 48.470119,17.733463 
	C47.587368,17.505938 47.104595,16.954056 46.621822,16.402172 
	C46.621822,16.402172 46.931656,16.065332 47.085155,15.891955 
	C47.732468,15.878300 48.226276,16.038021 48.822487,16.442329 
z"/>
<path fill="#E1F1F7" opacity="1.000000" stroke="none" 
	d="
M46.260937,16.299425 
	C47.104595,16.954056 47.587368,17.505938 48.351532,18.075628 
	C48.971565,19.230145 49.310211,20.366852 49.727539,21.980164 
	C49.806213,22.456768 49.774719,22.777925 49.467445,22.838615 
	C48.440498,23.267199 47.720818,23.635092 46.629559,24.000475 
	C45.515038,23.986313 44.772095,23.974663 43.962021,23.636250 
	C42.943871,22.310886 41.992851,21.312284 40.457100,19.699690 
	C40.042473,24.003132 38.884060,26.616852 35.474590,25.788307 
	C34.750675,24.088741 34.301334,23.033800 33.851994,21.978857 
	C31.700909,15.495461 32.546970,12.724710 37.534534,11.226990 
	C39.884724,14.044876 42.109024,16.392372 46.260937,16.299425 
z"/>
<path fill="#E6F1F5" opacity="1.000000" stroke="none" 
	d="
M18.909481,16.335384 
	C22.497173,16.589146 24.679768,14.926834 25.986134,11.447021 
	C32.064941,11.502872 32.211647,11.745878 31.049810,20.737854 
	C29.574356,19.798906 28.780348,18.733469 27.989759,17.672623 
	C25.161060,19.008410 30.801395,24.109491 24.973755,23.626005 
	C23.602098,19.243515 20.716543,20.214527 17.868753,21.065125 
	C17.292311,20.186152 16.715870,19.307177 16.210941,18.537249 
	C17.090897,17.912809 17.969255,17.289505 18.909481,16.335384 
z"/>
<path fill="#5BB6D3" opacity="1.000000" stroke="none" 
	d="
M31.689848,43.012699 
	C31.763914,44.665459 31.920185,46.319393 31.896612,47.970757 
	C31.826260,52.899361 29.101086,54.584122 24.895494,52.254414 
	C22.310835,50.822624 19.828093,49.206852 17.432713,47.177170 
	C19.055290,45.477425 20.544743,44.274204 22.286203,43.158394 
	C23.337460,42.523422 24.136705,41.801037 24.948610,41.463528 
	C25.409361,43.194523 25.610342,44.710480 26.382469,45.833881 
	C27.018639,46.759468 28.331579,47.219898 29.344597,47.886467 
	C29.890640,46.851624 30.456606,45.826626 30.974754,44.778000 
	C31.255230,44.210373 31.454142,43.602448 31.689848,43.012699 
z"/>
<path fill="#79D7F2" opacity="1.000000" stroke="none" 
	d="
M50.205570,37.011200 
	C50.279907,38.467648 50.354244,39.924095 50.672932,41.645901 
	C50.732544,42.483704 50.547810,43.056145 49.902164,43.597496 
	C48.625484,43.366268 47.809711,43.166138 46.662399,42.968750 
	C45.888889,42.979599 45.446922,42.987698 44.658661,42.987587 
	C43.850891,42.961067 43.389412,42.942760 42.824501,42.739822 
	C42.543114,42.327744 42.321854,42.156090 41.788864,42.029205 
	C41.341484,42.010746 41.162537,42.003315 40.770889,41.758102 
	C39.380760,40.365265 38.203331,39.210201 37.205063,37.733002 
	C39.253994,36.938675 41.123772,36.466484 43.137001,36.254684 
	C45.544235,36.349503 47.808018,36.183929 50.080887,36.269848 
	C50.128510,36.684628 50.167038,36.847912 50.205570,37.011200 
z"/>
<path fill="#A2E4F8" opacity="1.000000" stroke="none" 
	d="
M31.611538,30.001154 
	C31.668667,32.044250 31.725798,34.087345 31.301163,36.548500 
	C27.879705,36.653847 24.940014,36.341137 22.000904,36.015438 
	C22.001482,36.002453 22.002813,35.976482 21.991756,35.597710 
	C21.651001,33.498707 21.321304,31.778473 21.255138,29.792269 
	C23.017056,29.342617 24.515440,29.158934 26.274979,29.224960 
	C28.227932,29.650162 29.919735,29.825659 31.611538,30.001154 
z"/>
<path fill="#5ECFEE" opacity="1.000000" stroke="none" 
	d="
M46.993942,42.966003 
	C47.809711,43.166138 48.625484,43.366268 49.643585,43.752792 
	C49.743423,44.527348 49.640926,45.115517 49.065086,45.676773 
	C48.054638,46.407719 47.517525,47.165577 46.980415,47.923439 
	C46.503891,48.213661 46.027363,48.503883 45.072227,48.566063 
	C44.053226,48.505066 43.512844,48.672112 42.972458,48.839161 
	C42.972458,48.839161 42.962936,48.959091 42.559669,48.936462 
	C39.211273,47.621662 36.266140,46.329491 33.321003,45.037323 
	C33.275272,44.866718 33.229542,44.696117 33.552155,44.217758 
	C36.274860,43.271961 38.629223,42.633919 40.983585,41.995880 
	C41.162537,42.003315 41.341484,42.010746 41.889740,42.215851 
	C42.435829,42.644279 42.658794,42.814587 42.927937,42.924450 
	C43.389412,42.942760 43.850891,42.961067 44.706562,43.271263 
	C45.420349,43.861599 45.739937,44.160049 46.059528,44.458496 
	C46.370998,43.960999 46.682472,43.463501 46.993942,42.966003 
z"/>
<path fill="#6DCCE9" opacity="1.000000" stroke="none" 
	d="
M22.034193,43.070980 
	C20.544743,44.274204 19.055290,45.477425 17.294842,46.834999 
	C16.741051,46.801723 16.458252,46.614090 16.116238,45.851292 
	C15.738483,44.515568 15.419949,43.755009 15.101414,42.994453 
	C14.147724,42.168655 13.194035,41.342857 12.122042,40.221680 
	C12.011389,38.222301 12.019038,36.518314 12.361345,34.464745 
	C12.875976,34.160324 13.055948,34.205475 13.249782,34.506844 
	C13.775771,35.401714 14.287902,36.040367 15.032930,36.963432 
	C17.511490,36.824055 19.757151,36.400269 22.002813,35.976479 
	C22.002813,35.976482 22.001482,36.002453 21.951454,36.378510 
	C21.945681,38.860035 21.989937,40.965508 22.034193,43.070980 
z"/>
<path fill="#CEECF5" opacity="1.000000" stroke="none" 
	d="
M31.700575,29.583355 
	C29.919735,29.825659 28.227932,29.650162 26.222086,28.863955 
	C25.615088,26.827454 25.322136,25.401665 25.029182,23.975876 
	C30.801395,24.109491 25.161060,19.008410 27.989759,17.672623 
	C28.780348,18.733469 29.574356,19.798906 30.699709,20.950922 
	C31.283907,23.746853 31.536760,26.456205 31.700575,29.583355 
z"/>
<path fill="#ABE3F3" opacity="1.000000" stroke="none" 
	d="
M44.029152,23.963011 
	C44.772095,23.974663 45.515038,23.986313 46.627167,24.256617 
	C46.996838,24.686060 46.997318,24.856850 46.995728,25.410316 
	C45.664391,27.533812 44.335125,29.274630 43.008514,31.264631 
	C43.011166,31.513813 43.008904,32.012199 42.639977,32.018623 
	C39.318157,31.689135 36.365265,31.353218 33.412376,31.017302 
	C33.347527,30.567358 33.282681,30.117413 33.678352,29.333740 
	C39.064743,30.519812 41.495342,27.140083 44.029152,23.963011 
z"/>
<path fill="#BEE1ED" opacity="1.000000" stroke="none" 
	d="
M43.962021,23.636250 
	C41.495342,27.140083 39.064743,30.519812 33.780884,29.004768 
	C33.328018,26.800116 33.233143,24.590704 33.495132,22.180073 
	C34.301334,23.033800 34.750675,24.088741 35.474590,25.788307 
	C38.884060,26.616852 40.042473,24.003132 40.457100,19.699690 
	C41.992851,21.312284 42.943871,22.310886 43.962021,23.636250 
z"/>
<path fill="#7BD9F2" opacity="1.000000" stroke="none" 
	d="
M22.286203,43.158394 
	C21.989937,40.965508 21.945681,38.860035 21.950874,36.391495 
	C24.940014,36.341137 27.879705,36.653847 31.202604,36.976006 
	C31.658640,38.060650 31.731466,39.135845 31.364571,40.586594 
	C28.928549,41.000977 26.932251,41.039810 24.935951,41.078648 
	C24.136705,41.801037 23.337460,42.523422 22.286203,43.158394 
z"/>
<path fill="#9BE0F6" opacity="1.000000" stroke="none" 
	d="
M33.317432,31.441345 
	C36.365265,31.353218 39.318157,31.689135 42.640068,32.416561 
	C43.003910,33.870148 42.998730,34.932220 42.993546,35.994297 
	C41.123772,36.466484 39.253994,36.938675 36.829269,37.729683 
	C35.276165,38.016644 34.278008,37.984787 33.279854,37.952927 
	C33.260731,35.923748 33.241611,33.894569 33.317432,31.441345 
z"/>
<path fill="#57C2E1" opacity="1.000000" stroke="none" 
	d="
M33.227547,45.449081 
	C36.266140,46.329491 39.211273,47.621662 42.500256,48.927078 
	C41.720974,52.345409 39.116249,53.544918 35.929787,52.793236 
	C32.108101,51.891712 33.337227,48.483105 33.227547,45.449081 
z"/>
<path fill="#6AD4F2" opacity="1.000000" stroke="none" 
	d="
M24.948610,41.463528 
	C26.932251,41.039810 28.928549,41.000977 31.272724,40.983433 
	C31.687824,41.450581 31.755047,41.896439 31.756058,42.677498 
	C31.454142,43.602448 31.255230,44.210373 30.974754,44.778000 
	C30.456606,45.826626 29.890640,46.851624 29.344597,47.886467 
	C28.331579,47.219898 27.018639,46.759468 26.382469,45.833881 
	C25.610342,44.710480 25.409361,43.194523 24.948610,41.463528 
z"/>
<path fill="#75C3DA" opacity="1.000000" stroke="none" 
	d="
M33.179703,38.377598 
	C34.278008,37.984787 35.276165,38.016644 36.650108,38.051819 
	C38.203331,39.210201 39.380760,40.365265 40.770889,41.758102 
	C38.629223,42.633919 36.274860,43.271961 33.620811,43.961868 
	C33.240597,42.276581 33.160076,40.539425 33.179703,38.377598 
z"/>
<path fill="#57C2E1" opacity="1.000000" stroke="none" 
	d="
M47.304295,47.890732 
	C47.517525,47.165577 48.054638,46.407719 48.786633,45.800598 
	C48.530403,46.586899 48.079288,47.222462 47.304295,47.890732 
z"/>
<path fill="#5BB6D3" opacity="1.000000" stroke="none" 
	d="
M15.085270,43.332329 
	C15.419949,43.755009 15.738483,44.515568 16.040283,45.601013 
	C15.705407,45.174004 15.387266,44.422104 15.085270,43.332329 
z"/>
<path fill="#57C2E1" opacity="1.000000" stroke="none" 
	d="
M43.306084,48.865799 
	C43.512844,48.672112 44.053226,48.505066 44.769302,48.499779 
	C44.509899,48.738506 44.074802,48.815472 43.306084,48.865799 
z"/>
<path fill="#AAE0F0" opacity="1.000000" stroke="none" 
	d="
M43.005859,31.015450 
	C44.335125,29.274630 45.664391,27.533812 47.353043,25.391155 
	C48.399860,24.252186 49.087288,23.515057 49.774719,22.777925 
	C49.774719,22.777925 49.806213,22.456768 49.882042,22.314373 
	C50.910484,24.824968 51.863098,27.477959 52.746090,30.532738 
	C52.172951,31.104986 51.669434,31.275448 50.692322,31.660099 
	C47.814434,31.588011 45.410149,31.301731 43.005859,31.015450 
z"/>
<path fill="#BFE5F1" opacity="1.000000" stroke="none" 
	d="
M24.973755,23.626005 
	C25.322136,25.401665 25.615088,26.827454 25.960934,28.614246 
	C24.515440,29.158934 23.017056,29.342617 20.923573,29.774807 
	C19.885790,30.011673 19.443106,30.000029 18.865124,29.716602 
	C17.755474,26.175507 15.340432,25.562098 12.360612,25.989861 
	C12.384800,22.336121 15.184715,22.221161 17.798571,21.422321 
	C20.716543,20.214527 23.602098,19.243515 24.973755,23.626005 
z"/>
<path fill="#ABE0EF" opacity="1.000000" stroke="none" 
	d="
M12.245300,26.415047 
	C15.340432,25.562098 17.755474,26.175507 18.642975,29.962141 
	C16.613264,31.277245 14.670405,32.075024 12.727547,32.872807 
	C12.727547,32.872807 12.334875,32.778137 12.161126,32.880489 
	C12.034914,30.935305 12.082452,28.887768 12.245300,26.415047 
z"/>
<path fill="#88D5EF" opacity="1.000000" stroke="none" 
	d="
M43.008514,31.264631 
	C45.410149,31.301731 47.814434,31.588011 50.547573,31.896591 
	C51.235844,32.731430 51.595264,33.543968 51.729446,34.785534 
	C51.026733,35.482494 50.549267,35.750427 50.071796,36.018356 
	C47.808018,36.183929 45.544235,36.349503 43.137001,36.254684 
	C42.998730,34.932220 43.003910,33.870148 43.008995,32.410133 
	C43.008904,32.012199 43.011166,31.513813 43.008514,31.264631 
z"/>
<path fill="#72ACC0" opacity="1.000000" stroke="none" 
	d="
M50.080887,36.269848 
	C50.549267,35.750427 51.026733,35.482494 51.761528,35.117908 
	C51.605434,35.641376 51.192017,36.261494 50.492088,36.946407 
	C50.167038,36.847912 50.128510,36.684628 50.080887,36.269848 
z"/>
<path fill="#8BDDF4" opacity="1.000000" stroke="none" 
	d="
M12.547386,33.127209 
	C14.670405,32.075024 16.613264,31.277245 18.778271,30.233925 
	C19.443106,30.000029 19.885790,30.011673 20.660042,30.040779 
	C21.321304,31.778473 21.651001,33.498707 21.991756,35.597710 
	C19.757151,36.400269 17.511490,36.824055 15.027165,36.685154 
	C14.270976,35.498520 13.753449,34.874577 13.235922,34.250629 
	C13.055948,34.205475 12.875976,34.160324 12.428477,34.042572 
	C12.229710,33.773849 12.298468,33.577728 12.547386,33.127209 
z"/>
<path fill="#BEE1ED" opacity="1.000000" stroke="none" 
	d="
M49.467445,22.838615 
	C49.087288,23.515057 48.399860,24.252186 47.355114,25.008476 
	C46.997318,24.856850 46.996838,24.686060 46.998749,24.259127 
	C47.720818,23.635092 48.440498,23.267199 49.467445,22.838615 
z"/>
<path fill="#57C2E1" opacity="1.000000" stroke="none" 
	d="
M46.662399,42.968750 
	C46.682472,43.463501 46.370998,43.960999 46.059528,44.458496 
	C45.739937,44.160049 45.420349,43.861599 45.052856,43.279476 
	C45.446922,42.987698 45.888889,42.979599 46.662399,42.968750 
z"/>
<path fill="#75C3DA" opacity="1.000000" stroke="none" 
	d="
M42.824501,42.739822 
	C42.658794,42.814587 42.435829,42.644279 42.158165,42.226879 
	C42.321854,42.156090 42.543114,42.327744 42.824501,42.739822 
z"/>
<path fill="#829FAC" opacity="1.000000" stroke="none" 
	d="
M13.249783,34.506844 
	C13.753449,34.874577 14.270976,35.498520 14.794268,36.400745 
	C14.287902,36.040367 13.775771,35.401714 13.249783,34.506844 
z"/>
</svg>